<?xml version="1.0" encoding="utf-8"?>
<!-- Generator: Adobe Illustrator 20.1.0, SVG Export Plug-In . SVG Version: 6.00 Build 0)  -->
<svg version="1.1" id="Capa_1" xmlns="http://www.w3.org/2000/svg" xmlns:xlink="http://www.w3.org/1999/xlink" x="0px" y="0px"
	 width="159.1px" height="160.3px" viewBox="0 0 159.1 160.3" style="enable-background:new 0 0 159.1 160.3;" xml:space="preserve"
	>
<style type="text/css">
	.st0{fill:#CC6633;}
</style>
<g>
	<path class="st0" d="M56.8,84.6c0,0,3.8-14.6,14.7-17.1c0.5-0.1,1,0.3,1,0.8c-0.1,2.4,0.3,8.6,6.7,15.4c0,0,11.3,8.1,11,25
		c0,0,0.7,2.1,1.7,0c0,0,3.5-8.1-5-20.2c-1.7-2.4-0.7-6.3-0.4-9.1c0.2-2.1,0.5-4.1,0.9-6.2c1-5.3,2.6-10.5,5-15.3
		c3.8-7.4,9.9-13.5,18-15.7c3.9-1.1,9.2,0.1,12.9,1.3c9.9,3.3,16.2,11.8,19.2,21.5c2.6,8.3,4,24.4-7.1,27.2
		c-5.4,1.3-13.8-2.4-14.1-8.5c0,0-0.2-4.8,4-1.5c0.5,0.4,1.5,1.4,2.3,1.3c1.5-0.2,0.7-2.7,0.1-3.5c-0.7-1-1.9-1.8-2.9-2.4
		c-1.5-0.8-3.1-1.4-4.8-1.3c-3,0.1-6.7,2.4-8.3,4.9c-2.8,4.1-4.2,9.3-5.4,14.1c-1.7,7-2.4,14-6.5,20c-3.8,5.5-9.5,9.3-16.1,10.5
		c-0.4,0.1-0.8,0.1-1.3,0.2H62.5c0,0-2,0-2-2.7c0-0.5,0.4-1.1,0.7-1.5c1.1-1.4,2.9-2.3,4.5-2.9c1.8-0.7,3.9-0.7,5.4-2
		c0.2-0.2,0.5-0.5,0.4-0.8c-0.1-0.1-0.2-0.3-0.4-0.4c-1-0.5-2-0.7-2.7-1.5c-0.5-0.7-0.9-1.5-1.1-2.3c-0.4-1.8-0.4-3.8-0.2-5.7
		c0.1-1.4,0.4-2.8,0.7-4.1c0,0,3.2-6.6,3.2-9.3c0,0,0.5-7.6-1.3-7.6c0,0-6,3.1-9,17.7c0,0-0.5,2.4-2.2-0.2
		C58.8,102.5,54.3,95,56.8,84.6z"/>
	<path class="st0" d="M23.7,87.9c7.9,2.9,15.3-0.4,15.3-0.4c2.8-1.5,3.5-0.6,3.5-0.6c0.6,1.6-0.1,6.1-0.1,6.1
		c-1,2.4-3.8,9.6-3.8,9.6c-3.3,7.9,1.5,12.7,1.5,12.7c2.4,2.7-1.1,2.6-1.1,2.6c-8.5,1.6-8.7,5.3-8.7,5.3c0,2.7,2,2.7,2,2.7H55
		c3.9-1.3,1-7.6,1-7.6C48.2,105.6,49.6,85,49.6,85C51.3,69,67,64.1,67,64.1c5.2-1.6,10.6,0.1,15.8-1.1c1.2-0.3,2.4-0.8,3.2-1.7
		c0.7-0.8,1-1.8,1.2-2.8c0.1-0.4,0.1-0.9,0.2-1.3c0.7-8.7-6.8-14.9-14.6-16.6c-1.2-0.2-2.3-0.4-3.5-0.4c-0.6,0-1.9,0.3-2.3-0.1
		c-7.4-7.8-12.7-5.5-12.7-5.5c-0.9,6.8,1.7,11,1.7,11c-5.3,5-6.8,11.8-8.9,18.5c-2.2,7.1-7.9,13.1-14,17.1c-2.7,1.8-6.3,3.6-9.4,4.8
		C21.3,86.9,23.7,87.9,23.7,87.9z M72.8,53.9c-1.8-0.1-3.3-1.3-4.2-2.8c-1.8-3,3.5-4.2,5.4-3.3c1.3,0.6,3.3,3.2,2.8,4.6
		C76.3,53.9,74.1,53.9,72.8,53.9z"/>
</g>
<g>
	<path class="st0" d="M159.1,80.7c0,0,0,0.5,0,1.4c0,0.9,0,2.3-0.2,4.2c-0.2,3.6-0.8,9-2.6,15.6c-1.8,6.6-4.8,14.4-10,22.4
		c-5.1,8-12.5,16.1-22.1,22.7c-4.8,3.3-10.2,6.2-16.1,8.5c-5.9,2.3-12.3,3.9-19,4.7c-1.7,0.2-3.4,0.3-5.1,0.5
		c-1.7,0-3.4,0.2-5.2,0.1c-0.9,0-1.7,0-2.6-0.1c-0.9,0-1.7-0.1-2.6-0.2c-1.8-0.1-3.5-0.3-5.3-0.6c-3.5-0.5-7-1.2-10.5-2.2
		c-1.8-0.4-3.5-1.1-5.2-1.6c-1.7-0.7-3.4-1.3-5.1-2.1c-6.7-3-13.2-7-19-11.8c-5.8-4.9-11-10.7-15.3-17.1c-4.3-6.5-7.6-13.6-9.9-21.1
		c-1.2-3.8-2-7.6-2.6-11.5c-0.6-3.9-0.8-7.8-0.9-11.8c0.1-3.9,0.3-7.9,0.9-11.7c0.6-3.9,1.4-7.7,2.6-11.5c2.3-7.5,5.6-14.6,9.9-21.1
		c4.3-6.5,9.4-12.3,15.3-17.1c5.8-4.9,12.2-8.9,19-11.8c1.7-0.8,3.4-1.4,5.1-2.1c1.7-0.6,3.4-1.2,5.2-1.6c3.5-1,7-1.7,10.5-2.2
		C70.3,1.2,72,1,73.7,0.9c0.9-0.1,1.7-0.1,2.6-0.2c0.9,0,1.7,0,2.6-0.1l1.3,0l1.3,0c0.9,0,1.7,0.1,2.5,0.1c1.7,0.1,3.4,0.2,5.1,0.5
		c6.7,0.8,13.1,2.4,19,4.7c5.9,2.3,11.3,5.2,16.1,8.5c9.7,6.7,17,14.8,22.1,22.7c5.2,8,8.2,15.8,10,22.4c1.8,6.6,2.4,11.9,2.6,15.6
		c0.2,1.8,0.1,3.2,0.2,4.2C159.1,80.2,159.1,80.7,159.1,80.7z M159.1,80.7c0,0,0-0.5,0-1.4c0-0.9,0-2.3-0.2-4.2
		c-0.2-3.6-0.8-9-2.7-15.6c-1.8-6.5-4.8-14.3-10-22.3c-5.2-7.9-12.5-16-22.2-22.5c-4.8-3.2-10.3-6-16.1-8.2
		C102,4.3,95.7,2.8,89.1,2.1c-1.7-0.2-3.3-0.3-5-0.4c-0.8,0-1.7,0-2.5,0l-1.3,0l-1.3,0c-0.9,0-1.7,0.1-2.6,0.1
		c-0.9,0-1.7,0.1-2.6,0.2c-1.7,0.1-3.4,0.4-5.2,0.6c-3.4,0.6-6.9,1.3-10.3,2.3C56.7,5.3,55,6,53.3,6.6c-1.7,0.7-3.4,1.3-5,2.1
		c-13.2,6-25,16-33.3,28.7C10.8,43.6,7.6,50.6,5.4,58c-1.1,3.7-1.9,7.4-2.5,11.2C2.4,73,2.2,76.8,2.1,80.7c0,3.8,0.3,7.7,0.8,11.5
		c0.6,3.8,1.3,7.6,2.5,11.2c2.2,7.3,5.4,14.3,9.6,20.7c8.3,12.7,20.2,22.7,33.3,28.7c1.6,0.8,3.3,1.4,5,2.1c1.7,0.6,3.4,1.2,5.1,1.7
		c3.4,1.1,6.9,1.8,10.3,2.3c1.7,0.2,3.4,0.5,5.2,0.6c0.9,0.1,1.7,0.2,2.6,0.2c0.9,0,1.7,0.1,2.6,0.1c1.7,0.1,3.4,0,5.1,0
		c1.7-0.1,3.4-0.2,5-0.4c6.6-0.7,13-2.2,18.8-4.4c5.9-2.2,11.3-5,16.1-8.2c9.7-6.5,17-14.6,22.2-22.5c5.2-7.9,8.2-15.7,10-22.3
		c1.8-6.6,2.4-11.9,2.7-15.5c0.2-1.8,0.1-3.2,0.2-4.2C159.1,81.2,159.1,80.7,159.1,80.7z"/>
</g>
</svg>
