<?xml version="1.0" encoding="utf-8"?>
<!-- Generator: Adobe Illustrator 20.1.0, SVG Export Plug-In . SVG Version: 6.00 Build 0)  -->
<svg version="1.1" id="Capa_1" xmlns="http://www.w3.org/2000/svg" xmlns:xlink="http://www.w3.org/1999/xlink" x="0px" y="0px"
	 width="219.2px" height="191.8px" viewBox="0 0 219.2 191.8" style="enable-background:new 0 0 219.2 191.8;" xml:space="preserve"
	>
<style type="text/css">
	.st0{opacity:0.2;}
	.st1{fill:none;stroke:#ABABAB;stroke-width:2;stroke-miterlimit:10;}
	.st2{fill:#FFFFFF;}
	.st3{fill:#ABABAB;}
	.st4{fill:#219CAF;}
	.st5{fill:#7B304D;}
	.st6{fill:#594482;}
	.st7{fill:#DFA52F;}
	.st8{opacity:0.2;fill:#FFFFFF;}
	.st9{fill:none;stroke:#FFFFFF;stroke-width:2;stroke-linecap:round;stroke-linejoin:round;stroke-miterlimit:10;}
	.st10{fill:#7E7D7D;}
	.st11{fill:#444848;}
	.st12{fill:#86BCCA;}
	.st13{fill:#CBCACB;}
	.st14{opacity:0.3;fill:#FFFFFF;}
	.st15{fill:#175056;}
	.st16{fill:#0D2728;}
	.st17{fill:#C85837;}
	.st18{fill:#C2804C;}
	.st19{fill:#7FBCC6;}
	.st20{fill:none;stroke:#444848;stroke-width:2;stroke-linecap:round;stroke-linejoin:round;stroke-miterlimit:10;}
	.st21{opacity:0.5;}
	.st22{fill:#DCDCDB;}
	.st23{opacity:0.6;fill:#FFFFFF;}
	.st24{opacity:0.5;fill:#224849;}
</style>
<g>
	<g class="st0">
		<path d="M212.6,94.5h-0.3l0-3h0l0-0.8l0-0.6l0-1.1c0,0,0,0,0,0l0-0.1h0c0-0.2-0.1-0.3-0.2-0.4c-0.1-0.2-0.3-0.2-0.4-0.2l-1.3,0
			c-0.2,0-0.3,0.1-0.4,0.2c-0.1,0.1-0.1,0.3-0.2,0.4h0l0,0.1c0,0,0,0,0,0l0,1.8l0,0l0,3.7h-0.3l0-16.1c0.9-0.1,1.4-0.4,1.4-0.4
			l2-13.5l-3.5-1.1l0,0l-3.5-1.1l-5.8,12.4c0,0,0.3,0.5,1,1.1l-12.8,19.3l0.9,0.6l-2.9,5.4l4-4.7l1,0.6l12.8-19.3
			c0.3,0.1,0.6,0.2,0.9,0.3c0.3,0.1,0.6,0.2,0.9,0.2l0,20.8h3.5l0,1.9h0.3l0,4.4h0l0.6,1.5l0.6,1.5l0.6-1.4l0.7-1.5l0-4.5h0.3
			L212.6,94.5z"/>
		<polygon points="212.6,96.4 212.6,98.8 213.7,98.8 213.7,96.4 		"/>
		<rect x="207.1" y="58.9" transform="matrix(0.2885 -0.9575 0.9575 0.2885 92.1933 244.4522)" width="6.9" height="2.7"/>
	</g>
	<path class="st0" d="M82.4,3.7c-7.7,0-14.2,5.5-15.6,12.9h-7.1c-1.3,0-2.4,1.1-2.4,2.4v1.1c0,1.3,1.1,2.4,2.4,2.4h7.1
		c1.4,7.3,7.8,12.9,15.6,12.9c8.8,0,15.9-7.1,15.9-15.9S91.1,3.7,82.4,3.7z"/>
	
		<rect x="127.9" y="77.3" transform="matrix(0.2693 -0.963 0.963 0.2693 21.2057 218.038)" class="st0" width="52.8" height="35.4"/>
	<polygon class="st0" points="219.5,139.9 214.9,131.9 200.2,140.4 203.4,128.4 194.4,126 189.9,143 189.9,123 180.6,123 
		180.6,154.3 186.8,154.3 186.3,156.2 195.3,158.6 196.8,153.1 	"/>
	<path class="st1" d="M31.9,123c0,0-14-4.7-9.1-19.8C27.7,88.1,18.1,71.7,0,76.9"/>
	<path class="st0" d="M115.2,139l1.3-4.7l-0.2-4.4l0,0v0l0,0c0-0.2-0.1-0.4-0.2-0.4c-0.2,0-0.4,0.1-0.4,0.2l0,0l0,0l-2.4,3.7
		l-6.5,24.1l-0.4,1.4c-0.1,0.3,0,0.6,0.1,0.9c0.2,0.3,0.4,0.5,0.7,0.6l1,0.3c0,0,0,0,0,0c0,0,0,0,0,0c0.3,0.1,0.6,0,0.9-0.1
		c0.3-0.2,0.5-0.4,0.6-0.7l0.4-1.4l3.7-13.8c0.1,0,0.2-0.1,0.3-0.1c0.2-0.1,0.4-0.3,0.4-0.5l0.2-0.9c0.1-0.2,0-0.5-0.1-0.7
		c-0.1-0.1-0.1-0.2-0.2-0.3l0.2-0.7c0.1,0,0.2-0.1,0.3-0.1c0.2-0.1,0.4-0.3,0.4-0.5l0.2-0.9c0.1-0.2,0-0.5-0.1-0.7
		C115.4,139.2,115.3,139.1,115.2,139z"/>
	<path class="st0" d="M108.9,126.6c-0.6-1.1-1.7-1.9-2.8-2.2l-10-2.7l0,0l-44.5-11.9l0,0l-10-2.7c-1.2-0.3-2.4-0.2-3.5,0.5
		c-1.1,0.6-1.9,1.7-2.2,2.8l-7.2,26.7c-0.3,1.2-0.2,2.4,0.5,3.5s1.7,1.9,2.8,2.2l10,2.7l0,0l40.1,10.7l0,0l4.4,1.2l0,0l10,2.7
		c1.2,0.3,2.4,0.2,3.5-0.5c1.1-0.6,1.9-1.7,2.2-2.8l7.2-26.7C109.7,129,109.6,127.7,108.9,126.6z"/>
	<g class="st0">
		<path d="M152.5,33.9C152.5,33.9,152.5,33.9,152.5,33.9C152.4,33.9,152.4,33.9,152.5,33.9C152.5,33.9,152.5,33.9,152.5,33.9
			C152.5,33.8,152.4,33.8,152.5,33.9l-3.2-3.8c0,0,0,0-0.1-0.1c0,0,0,0,0,0c0,0,0,0,0,0c0,0,0,0,0,0c-0.6-0.6-1.6-0.7-2.3-0.1
			l-3,2.6c-0.7,0.6-0.8,1.7-0.2,2.4l3.2,3.8c0.6,0.7,1.7,0.8,2.4,0.2l3-2.6C152.9,35.6,153,34.6,152.5,33.9z"/>
		<path d="M143.4,34.4l-1.8,2.2c-0.3,0.3-0.4,0.7-0.4,1.1c0,0.4,0.1,0.8,0.4,1.1l0.8,1c0.3,0.3,0.6,0.5,1,0.6c0.4,0.1,0.7,0,1-0.2
			c1.8,3.3,2.1,6.5,0.8,9.5c-3.3,7.7-16.1,12.2-22.3,13.5c-6.7,1.4-16,13.6-19.4,18.5h-0.4c0.4-2.4,1.5-4.9,3.7-7.7
			c8.6-10.9,4.1-14.9,1.2-17.5c-1.1-0.9-2-1.8-1.9-2.6c0.1-0.8,0.9-1.7,2.7-2.9c5.3-3.6,8.1-8.2,9.3-10.8l2.5,0.5v-0.4
			c0,0.9,0.8,1.7,1.7,1.7h4c0.9,0,1.6-0.7,1.7-1.6c0,0,0,0-0.1,0c0,0,0,0,0,0c0,0,0,0,0,0c0,0,0-0.1,0-0.1v-4.9c0,0,0-0.1,0-0.1
			c0,0,0,0,0,0c0,0,0,0,0,0c0,0,0,0,0.1,0c0-0.9-0.8-1.6-1.7-1.6h-4c-0.9,0-1.7,0.8-1.7,1.7v-0.4l-2.8,0.5c-0.4,0-0.8,0.2-1,0.6
			c-0.3,0.3-0.4,0.7-0.4,1.1v1.3c0,0.4,0.1,0.8,0.4,1.1c0.1,0.1,0.2,0.2,0.4,0.3c-1.2,2.6-3.8,6.9-8.9,10.3c-2.1,1.4-3,2.5-3.1,3.7
			c-0.1,1.3,1,2.3,2.2,3.4c2.8,2.5,6.7,6-1.3,16.2c-2.4,3-3.6,5.7-4,8.3h-1.9h-0.3v6h2.9c1.7,5,6.2,10,11.6,16
			c5.7,6.4,12.9,14.4,19,25c8.1,13.9,6.1,30.1,4.6,36.7c-1.6,7.2-11.1,28.5-11.2,28.6c-0.2,0.2-0.2,0.5,0,0.7
			c0.1,0.1,0.2,0.1,0.3,0.1c0.1,0,0.2-0.1,0.4-0.2c0.8-0.2,9.1-15.5,11.4-29c1.2-6.9,3.5-23.3-4.7-37.5
			c-6.2-10.7-13.4-18.7-19.1-25.2c-5.3-6-9.6-10.7-11.3-15.4h1.6v-0.9v-5.2h-0.7c3.7-5.1,12.4-16.2,18.4-17.5
			c6.5-1.4,19.6-6,23-14.1c1.4-3.3,1.1-6.7-0.8-10.3l1.7-1L143.4,34.4z"/>
	</g>
	<path class="st0" d="M80.5,96.4l6.4-23.8l0,0l-0.4-2.9L86.1,67l-1.7,2.2l-1.8,2.3L75,99.8l0,0c0,0.3,0,0.6,0.1,0.8
		c0.1,0.3,0.4,0.5,0.6,0.6l2.2,0.6c0.3,0.1,0.6,0,0.9-0.2c0.2-0.2,0.4-0.4,0.5-0.7l0,0l0.1-0.3l0,0l0.8-3.1l0,0L80.5,96.4L80.5,96.4
		z"/>
	<path class="st0" d="M81.9,51.8l-1.2-0.3l0,0l-1-0.3L80,50l-29.6-7.9c-1.2-0.3-2.5-0.2-3.7,0.5c-1.2,0.7-2,1.8-2.3,3l-9.3,34.6
		c-0.3,1.2-0.2,2.5,0.5,3.7c0.7,1.2,1.8,2,3,2.3l0.6,0.2l0,0l2.1,0.6v0l26.9,7.2l0.3-1.2l2.2,0.6L81.9,51.8z"/>
	
		<rect x="126.8" y="74.7" transform="matrix(0.2693 -0.963 0.963 0.2693 22.8724 215.0586)" class="st2" width="52.8" height="35.4"/>
	<circle class="st3" cx="137.4" cy="91" r="16.4"/>
	<g>
		<rect x="187.6" y="137" transform="matrix(0.866 -0.5 0.5 0.866 -43.5964 120.5716)" class="st2" width="31.3" height="9.3"/>
		<rect x="209.6" y="133.3" transform="matrix(0.8661 -0.5 0.5 0.8661 -39.63 124.5248)" class="st4" width="5.9" height="5.9"/>
		<rect x="203.4" y="136.9" transform="matrix(0.866 -0.5 0.5 0.866 -42.2753 121.9075)" class="st5" width="5.9" height="5.9"/>
		<rect x="197.1" y="140.5" transform="matrix(0.866 -0.5 0.5 0.866 -44.918 119.2447)" class="st6" width="5.9" height="5.9"/>
		
			<rect x="190.9" y="144.1" transform="matrix(0.866 -0.5001 0.5001 0.866 -47.5643 116.62)" class="st7" width="5.9" height="5.9"/>
		
			<rect x="210.4" y="136" transform="matrix(0.8661 -0.4999 0.4999 0.8661 -40.1581 125.0514)" class="st8" width="5.9" height="3"/>
		
			<rect x="204.1" y="139.6" transform="matrix(0.8659 -0.5002 0.5002 0.8659 -42.8065 122.4775)" class="st8" width="5.9" height="3"/>
		
			<rect x="197.9" y="143.2" transform="matrix(0.8659 -0.5002 0.5002 0.8659 -45.4519 119.833)" class="st8" width="5.9" height="3"/>
		
			<rect x="191.6" y="146.8" transform="matrix(0.8659 -0.5002 0.5002 0.8659 -48.0855 117.1683)" class="st8" width="5.9" height="3"/>
	</g>
	<path class="st9" d="M32.2,122.7c0,0-14-4.7-9.1-19.8C28,87.7,18.5,71.4,0.4,76.6"/>
	<g>
		
			<rect x="178.7" y="135.5" transform="matrix(0.2588 -0.9659 0.9659 0.2588 8.656 291.6368)" class="st2" width="31.2" height="9.3"/>
		
			<rect x="194.2" y="126.8" transform="matrix(0.2588 -0.9659 0.9659 0.2588 20.8401 286.5842)" class="st4" width="5.9" height="5.9"/>
		
			<rect x="192.4" y="133.8" transform="matrix(0.2588 -0.9659 0.9659 0.2588 12.7156 289.9494)" class="st5" width="5.9" height="5.9"/>
		
			<rect x="190.5" y="140.7" transform="matrix(0.2589 -0.9659 0.9659 0.2589 4.5876 293.3124)" class="st6" width="5.9" height="5.9"/>
		
			<rect x="188.6" y="147.7" transform="matrix(0.2588 -0.9659 0.9659 0.2588 -3.5221 296.6981)" class="st7" width="5.9" height="5.9"/>
		
			<rect x="195.6" y="128.6" transform="matrix(0.2589 -0.9659 0.9659 0.2589 21.4866 288.1604)" class="st8" width="5.9" height="3"/>
		<rect x="193.7" y="135.5" transform="matrix(0.2587 -0.966 0.966 0.2587 13.3957 291.5649)" class="st8" width="5.9" height="3"/>
		
			<rect x="191.9" y="142.5" transform="matrix(0.2587 -0.9659 0.9659 0.2587 5.2628 294.9234)" class="st8" width="5.9" height="3"/>
		<rect x="190" y="149.5" transform="matrix(0.2587 -0.966 0.966 0.2587 -2.8586 298.2946)" class="st8" width="5.9" height="3"/>
	</g>
	<g>
		<rect x="180.1" y="120.9" class="st2" width="9.3" height="31.3"/>
		<rect x="181.8" y="122.8" class="st4" width="5.9" height="5.9"/>
		<rect x="181.8" y="130" class="st5" width="5.9" height="5.9"/>
		<rect x="181.8" y="137.2" class="st6" width="5.9" height="5.9"/>
		<rect x="181.8" y="144.5" class="st7" width="5.9" height="5.9"/>
		<rect x="184.6" y="122.8" class="st8" width="3" height="5.9"/>
		<rect x="184.6" y="130" class="st8" width="3" height="5.9"/>
		<rect x="184.6" y="137.2" class="st8" width="3" height="5.9"/>
		<rect x="184.6" y="144.5" class="st8" width="3" height="5.9"/>
	</g>
	<g>
		
			<rect x="37.7" y="50" transform="matrix(0.2588 -0.9659 0.9659 0.2588 -20.4558 106.6154)" class="st2" width="43.2" height="33.3"/>
		
			<rect x="36.4" y="49.7" transform="matrix(0.2588 -0.9659 0.9659 0.2588 -21.0373 105.2111)" class="st10" width="43.2" height="33.3"/>
		<path class="st11" d="M67.2,92.4l-29.6-7.9c-1.2-0.3-2.3-1.1-3-2.3c-0.7-1.2-0.8-2.5-0.5-3.7l9.3-34.6c0.3-1.2,1.1-2.3,2.3-3
			c1.2-0.7,2.5-0.8,3.7-0.5L79,48.3L67.2,92.4z"/>
		
			<rect x="22.4" y="61.8" transform="matrix(0.259 -0.9659 0.9659 0.259 -27.2307 90.2574)" class="st7" width="45.7" height="2.1"/>
		<path class="st12" d="M51.5,58c-0.3,1.1-0.2,2.3,0.4,3.3c0.6,1.1,1.6,1.8,2.7,2.1l19,5.1l1.8-6.8l-23.2-6.2L51.5,58z"/>
		<path class="st8" d="M49.1,41.6c-1-0.2-2.1,0-3.1,0.5c-1.1,0.6-1.8,1.7-2.2,2.8L35,77.7c-0.3,1.1-0.2,2.4,0.5,3.5
			c0.6,1,1.4,1.7,2.4,2L49.1,41.6z"/>
	</g>
	<g>
		<path class="st2" d="M100.8,155.1c-0.3,1.2-1.1,2.2-2.2,2.8c-1.1,0.6-2.4,0.8-3.5,0.5l-64.6-17.3c-1.2-0.3-2.2-1.1-2.8-2.2
			c-0.6-1.1-0.8-2.4-0.5-3.5l7.2-26.7c0.3-1.2,1.1-2.2,2.2-2.8c1.1-0.6,2.4-0.8,3.5-0.5l64.6,17.3c1.2,0.3,2.2,1.1,2.8,2.2
			c0.6,1.1,0.8,2.4,0.5,3.5L100.8,155.1z"/>
		
			<rect x="49" y="108.9" transform="matrix(0.2588 -0.9659 0.9659 0.2588 -77.3617 162.9984)" class="st11" width="37" height="46.1"/>
		
			<ellipse transform="matrix(0.2588 -0.9659 0.9659 0.2588 -92.0517 128.7254)" class="st11" cx="37.9" cy="124.3" rx="3.8" ry="3.8"/>
		
			<ellipse transform="matrix(0.2588 -0.9659 0.9659 0.2588 -92.0518 128.7255)" class="st13" cx="37.9" cy="124.3" rx="2.9" ry="2.9"/>
		<path class="st11" d="M42.4,118.2c-0.2,0.6-0.9,1-1.7,0.8l-2.7-0.7c-0.7-0.2-1.2-0.9-1-1.5c0.2-0.6,0.9-1,1.7-0.8l2.7,0.7
			C42.1,116.9,42.6,117.6,42.4,118.2z"/>
		<path class="st11" d="M37.7,135.8c-0.2,0.6-0.9,1-1.7,0.8l-2.7-0.7c-0.7-0.2-1.2-0.9-1-1.5c0.2-0.6,0.9-1,1.7-0.8l2.7,0.7
			C37.4,134.5,37.8,135.2,37.7,135.8z"/>
		<path class="st11" d="M38.8,131.7c-0.2,0.6-0.9,1-1.7,0.8l-2.7-0.7c-0.7-0.2-1.2-0.9-1-1.5c0.2-0.6,0.9-1,1.7-0.8l2.7,0.7
			C38.5,130.4,39,131,38.8,131.7z"/>
		<path class="st8" d="M40.6,125.1c0.4-1.5-0.5-3.1-2-3.5c-0.8-0.2-1.6-0.1-2.3,0.4l2.9,5C39.9,126.5,40.4,125.9,40.6,125.1z"/>
		<g>
			<path class="st11" d="M43.5,114.1c-0.2,0.6-0.9,1-1.7,0.8l-2.7-0.7c-0.7-0.2-1.2-0.9-1-1.5c0.2-0.6,0.9-1,1.7-0.8l2.7,0.7
				C43.2,112.8,43.7,113.4,43.5,114.1z"/>
		</g>
		<polygon class="st4" points="89.4,139.3 94,140.5 92,137 90.2,136.5 		"/>
		<polygon class="st4" points="95.2,140.8 95.9,138 92,137 94,140.5 		"/>
		<polygon class="st8" points="95.2,140.8 95.9,138 92,137 94,140.5 		"/>
		<path class="st8" d="M36.6,134.3l-2.4-0.6l1.6,2.9l0.2,0c0.7,0.2,1.5-0.2,1.7-0.8C37.8,135.2,37.4,134.5,36.6,134.3z"/>
		<path class="st8" d="M37.7,130.2l-2.4-0.6l1.6,2.9l0.2,0c0.7,0.2,1.5-0.2,1.7-0.8C39,131,38.5,130.4,37.7,130.2z"/>
		<path class="st8" d="M41.4,116.7l-2.4-0.6l1.6,2.9l0.2,0c0.7,0.2,1.5-0.2,1.7-0.8C42.6,117.6,42.1,116.9,41.4,116.7z"/>
		<path class="st8" d="M42.5,112.6l-2.4-0.6l1.6,2.9l0.2,0c0.7,0.2,1.5-0.2,1.7-0.8C43.7,113.4,43.2,112.8,42.5,112.6z"/>
		<polygon class="st14" points="54.5,109.3 54.5,109.3 79.3,154.3 85,155.8 94.6,120.1 		"/>
	</g>
	<g>
		<circle class="st4" cx="136.1" cy="89" r="16.4"/>
		<circle class="st15" cx="136.1" cy="89" r="13.9"/>
		<circle class="st16" cx="136.1" cy="89" r="10.4"/>
	</g>
	<g>
		<path class="st17" d="M131.9,95.6c-0.2-0.1-0.3-0.2-0.4-0.3l-6.8-4l5.3-5.1l4.3,6.1l0,0c0.3,0.4,0.5,0.8,0.5,1.3c0,1.1-0.9,2-2,2
			C132.4,95.7,132.1,95.7,131.9,95.6L131.9,95.6L131.9,95.6z"/>
		<circle class="st18" cx="126.7" cy="88.3" r="3.8"/>
		<polygon class="st18" points="124.4,84.5 127.1,84.5 123,88.9 123,85.9 		"/>
		<circle class="st11" cx="124.1" cy="85.7" r="1.2"/>
	</g>
	<path class="st8" d="M134.7,93.7c0-0.5-0.2-1-0.5-1.3l0,0l-4.3-6.1c-0.6-1-1.7-1.7-2.9-1.8l0,0h-2.7l0,0c0.5,0.1,0.9,0.6,0.9,1.1
		c0,0.3-0.1,0.5-0.2,0.7l8.9,8.9C134.4,94.9,134.7,94.3,134.7,93.7z"/>
	<g>
		<path class="st4" d="M139.3,89.1c0.2-0.1,0.3-0.2,0.4-0.3l6.8-4l-5.3-5.1l-4.3,6.1l0,0c-0.3,0.4-0.5,0.8-0.5,1.3c0,1.1,0.9,2,2,2
			C138.8,89.2,139.1,89.2,139.3,89.1L139.3,89.1L139.3,89.1z"/>
		<circle class="st18" cx="144.5" cy="81.7" r="3.8"/>
		<polygon class="st18" points="146.8,78 144.1,78 148.2,82.4 148.2,79.4 		"/>
		<circle class="st11" cx="147.1" cy="79.1" r="1.2"/>
	</g>
	<path class="st8" d="M136.5,87.2c0-0.5,0.2-1,0.5-1.3l0,0l4.3-6.1c0.6-1,1.7-1.7,2.9-1.8l0,0h2.7l0,0c-0.5,0.1-0.9,0.6-0.9,1.1
		c0,0.3,0.1,0.5,0.2,0.7l-8.9,8.9C136.8,88.4,136.5,87.8,136.5,87.2z"/>
	<g>
		
			<rect x="65.2" y="82.5" transform="matrix(0.2588 -0.9659 0.9659 0.2588 -22.6382 140.0491)" class="st19" width="29.4" height="4.5"/>
		<path class="st2" d="M78.4,99.3c-0.1,0.4-0.3,0.7-0.6,0.9c-0.3,0.2-0.6,0.3-0.9,0.2l-2.2-0.6c-0.3-0.1-0.5-0.3-0.6-0.6
			c-0.1-0.3-0.1-0.7,0-1.1l0.8-3.1l4.3,1.2L78.4,99.3z"/>
		<polygon class="st2" points="85.9,71.2 85.5,68.3 83.4,67.7 81.6,70 		"/>
		<polygon class="st11" points="85.1,65.6 83.4,67.7 85.5,68.3 		"/>
		
			<rect x="76.3" y="93" transform="matrix(0.2589 -0.9659 0.9659 0.2589 -34.7799 145.0645)" class="st7" width="1.7" height="4.5"/>
	</g>
	<g>
		
			<ellipse transform="matrix(0.2589 -0.9659 0.9659 0.2589 -38.8372 206.4665)" class="st13" cx="115.1" cy="128.5" rx="0.3" ry="0.3"/>
		
			<rect x="98.3" y="142.9" transform="matrix(0.2588 -0.9659 0.9659 0.2588 -57.575 214.242)" class="st2" width="25" height="3.5"/>
		<polygon class="st11" points="115.5,128.6 114.8,128.4 112.4,132.1 115.7,133 		"/>
		<path class="st11" d="M108.9,158.5c-0.1,0.3-0.3,0.6-0.6,0.7c-0.3,0.2-0.6,0.2-0.9,0.1l-1-0.3c-0.3-0.1-0.6-0.3-0.7-0.6
			c-0.2-0.3-0.2-0.6-0.1-0.9l0.4-1.4l3.4,0.9L108.9,158.5z"/>
		<path class="st0" d="M108.4,159.3c0.3-0.2,0.5-0.4,0.6-0.7l0.4-1.4l3.7-13.8c0.1,0,0.2-0.1,0.3-0.1c0.2-0.1,0.4-0.3,0.4-0.5
			l0.2-0.9c0.1-0.2,0-0.5-0.1-0.7c-0.1-0.1-0.1-0.2-0.2-0.3l0.2-0.7c0.1,0,0.2-0.1,0.3-0.1c0.2-0.1,0.4-0.3,0.4-0.5l0.2-0.9
			c0.1-0.2,0-0.5-0.1-0.7c-0.1-0.1-0.1-0.2-0.2-0.3l1.3-4.7l-0.2-4.4l0,0l-0.3-0.1l-0.4,4.2l-6.5,24.1c0,0-0.3,1.8-0.9,2.5
			C107.8,159.5,108.1,159.4,108.4,159.3z"/>
		<path class="st11" d="M113.7,142.7c-0.1,0.2-0.2,0.4-0.4,0.5c-0.2,0.1-0.5,0.2-0.7,0.1l-0.2-0.1l0.7-2.6l0.2,0.1
			c0.2,0.1,0.4,0.2,0.5,0.4c0.1,0.2,0.1,0.5,0.1,0.7L113.7,142.7z"/>
		<path class="st11" d="M114.6,139.5c-0.1,0.2-0.2,0.4-0.4,0.5c-0.2,0.1-0.5,0.2-0.7,0.1l-0.2-0.1l0.7-2.6l0.2,0.1
			c0.2,0.1,0.4,0.2,0.5,0.4c0.1,0.2,0.1,0.5,0.1,0.7L114.6,139.5z"/>
	</g>
	<path class="st20" d="M101.5,84c0,0,12.4-18.5,20.5-20.2c8.1-1.7,30.6-9.6,21.4-24.6"/>
	<path class="st20" d="M117.4,37.8c0,0-2.1,7.5-9.9,12.8c-10.6,7.1,12.4,4.9-2,23.1c-13.5,17,10.3,25.4,27.3,54.8
		c15.8,27.3-6,65.3-6,65.3"/>
	<g>
		<path class="st11" d="M126.8,35.2C126.8,35.2,126.8,35.2,126.8,35.2C126.8,35.2,126.8,35.3,126.8,35.2c0-0.9-0.7-1.6-1.6-1.6h-4
			c-0.9,0-1.7,0.8-1.7,1.7v4.9c0,0.9,0.8,1.7,1.7,1.7h4c0.9,0,1.6-0.7,1.7-1.6c0,0,0,0-0.1,0c0,0,0,0,0,0c0,0,0,0,0,0
			c0,0,0-0.1,0-0.1L126.8,35.2C126.8,35.3,126.8,35.3,126.8,35.2C126.8,35.3,126.8,35.2,126.8,35.2z"/>
		<path class="st2" d="M119.5,40.6l-2.8-0.5c-0.4,0-0.8-0.2-1-0.6c-0.3-0.3-0.4-0.7-0.4-1.1v-1.3c0-0.4,0.1-0.8,0.4-1.1
			c0.3-0.3,0.7-0.5,1-0.6l2.8-0.5V40.6z"/>
		<path class="st21" d="M126.8,35.3C126.8,35.3,126.8,35.3,126.8,35.3C126.8,35.3,126.8,35.2,126.8,35.3c-0.7-0.1-1.2,0.7-1.2,1.6
			v1.8c0,0.9,0.5,1.7,1.1,1.7c0,0,0,0,0.1,0c0,0,0-0.1,0-0.1V35.3z"/>
	</g>
	<g>
		<path class="st11" d="M148.1,30C148.1,30,148.1,30,148.1,30C148.1,30,148.1,30,148.1,30c-0.6-0.7-1.6-0.7-2.2-0.2l-3,2.6
			c-0.7,0.6-0.8,1.7-0.2,2.4l3.2,3.8c0.6,0.7,1.7,0.8,2.4,0.2l3-2.6c0.7-0.6,0.8-1.6,0.3-2.3c0,0,0,0,0,0c0,0,0,0,0,0c0,0,0,0,0,0
			c0,0,0-0.1,0-0.1l-3.2-3.8C148.2,30.1,148.1,30,148.1,30C148.1,30,148.1,30,148.1,30z"/>
		<path class="st2" d="M146,38.8l-2.5,1.4c-0.3,0.2-0.7,0.3-1.2,0.3c-0.4-0.1-0.8-0.3-1-0.6l-0.8-1c-0.3-0.3-0.4-0.7-0.4-1.1
			c0-0.4,0.2-0.8,0.4-1.1l1.8-2.2L146,38.8z"/>
		<path class="st21" d="M148.2,30.1C148.2,30.1,148.1,30,148.2,30.1c-0.1-0.1-0.1,0-0.1,0c-0.5,0.4-0.4,1.3,0.2,2l1.1,1.4
			c0.6,0.7,1.5,1,1.9,0.6c0,0,0,0,0,0c0,0,0-0.1,0-0.1L148.2,30.1z"/>
	</g>
	<g>
		<rect x="98.9" y="81.7" class="st11" width="5.5" height="6"/>
		<rect x="100.7" y="81.7" class="st13" width="1.9" height="6"/>
		<polygon class="st22" points="104.4,81.7 99.2,81.7 104.4,86.9 		"/>
	</g>
	<g>
		<path class="st11" d="M69,17.6c0,1.3-1.1,2.4-2.4,2.4h-7.7c-1.3,0-2.4-1.1-2.4-2.4v-1.1c0-1.3,1.1-2.4,2.4-2.4h7.7
			c1.3,0,2.4,1.1,2.4,2.4V17.6z"/>
		<circle class="st11" cx="81.6" cy="17.1" r="15.9"/>
		<circle class="st4" cx="81.6" cy="17.1" r="12.1"/>
		<circle class="st23" cx="75.2" cy="16.6" r="1.2"/>
		<circle class="st23" cx="89.5" cy="19" r="1.2"/>
		<circle class="st23" cx="82.9" cy="22.6" r="0.9"/>
		<circle class="st23" cx="80.2" cy="7.5" r="0.9"/>
		<circle class="st23" cx="78.4" cy="12" r="0.4"/>
		<circle class="st23" cx="80.2" cy="15.7" r="0.6"/>
		<circle class="st23" cx="84.8" cy="8.8" r="0.6"/>
		<circle class="st23" cx="78.8" cy="21.7" r="0.6"/>
		<circle class="st23" cx="82.9" cy="27.4" r="0.6"/>
		<circle class="st23" cx="85.2" cy="14" r="0.4"/>
		<circle class="st23" cx="88.9" cy="12.2" r="0.6"/>
		<circle class="st23" cx="84" cy="18.4" r="0.6"/>
		<circle class="st23" cx="74" cy="12.3" r="0.6"/>
		<circle class="st23" cx="75.2" cy="23.8" r="0.6"/>
		<circle class="st23" cx="87.7" cy="23.2" r="0.6"/>
		<path class="st24" d="M81.6,4.9c-4.3,0-8.2,2.3-10.3,5.7c1.9-1.2,4.1-1.8,6.4-1.8c6.7,0,12.1,5.4,12.1,12.1c0,2.4-0.7,4.6-1.8,6.4
			c3.4-2.1,5.7-6,5.7-10.3C93.8,10.4,88.4,4.9,81.6,4.9z"/>
	</g>
	<g>
		<g>
			<polygon class="st2" points="209.1,104.7 209.7,106.2 210.9,106.2 211.6,104.7 			"/>
			<polygon class="st11" points="210.3,107.7 210.9,106.2 209.7,106.2 			"/>
			<polygon class="st7" points="211.7,90.7 211.7,90.7 211.7,89.9 211.8,88 209.2,88 209.1,104.7 211.6,104.7 			"/>
			<path class="st2" d="M209.2,88.2c0-0.2,0.1-0.4,0.2-0.6c0.1-0.2,0.3-0.2,0.4-0.2l1.3,0c0.2,0,0.3,0.1,0.4,0.2
				c0.1,0.2,0.2,0.4,0.2,0.6l0,1.8l-2.5,0L209.2,88.2z"/>
		</g>
		<polygon class="st2" points="185.7,100.3 189.4,93.5 190.8,94.4 		"/>
		
			<rect x="181.7" y="79.4" transform="matrix(0.5528 -0.8333 0.8333 0.5528 21.0851 201.7652)" class="st11" width="33.7" height="3.6"/>
		<polygon class="st11" points="205.3,98.4 208.9,98.4 209,67 205.4,67 		"/>
		<polygon class="st2" points="208.8,100.3 211.9,100.3 212,93.7 208.9,93.7 		"/>
		<polygon class="st11" points="212,98 213.1,98 213.1,95.5 212,95.5 		"/>
		<path class="st12" d="M210.3,77.2c0,0-2.8,1.1-5.9,0.1c-3.1-0.9-4.9-3.4-4.9-3.4l5.8-12.4l7.1,2.1L210.3,77.2z"/>
		<path class="st8" d="M212.4,63.7l-3.5-1.1l-4.4,14.7c3.1,0.9,5.9-0.1,5.9-0.1L212.4,63.7z"/>
		<ellipse transform="matrix(0.2886 -0.9574 0.9574 0.2886 82.198 246.8123)" class="st2" cx="207.2" cy="68.1" rx="2.9" ry="2.9"/>
		
			<ellipse transform="matrix(0.2887 -0.9574 0.9574 0.2887 82.1851 246.8031)" class="st11" cx="207.2" cy="68.1" rx="2.1" ry="2.1"/>
		
			<rect x="206.6" y="58" transform="matrix(0.2885 -0.9575 0.9575 0.2885 92.6008 243.2658)" class="st2" width="6.9" height="2.7"/>
	</g>
</g>
</svg>
