<?xml version="1.0" encoding="utf-8"?>
<!-- Generator: Adobe Illustrator 20.1.0, SVG Export Plug-In . SVG Version: 6.00 Build 0)  -->
<svg version="1.1" id="Capa_1" xmlns="http://www.w3.org/2000/svg" xmlns:xlink="http://www.w3.org/1999/xlink" x="0px" y="0px"
	 viewBox="0 0 143.5 138.9" style="enable-background:new 0 0 143.5 138.9;" xml:space="preserve">
<style type="text/css">
	.st0{opacity:0.3;}
	.st1{fill:#070308;}
	.st2{fill:#FFFFFF;}
</style>
<g>
	<g class="st0">
		<path class="st1" d="M128.6,69.8c0-6.1-0.9-12.1-2.7-17.6l-26.4,68.5C116.9,110.4,128.6,91.5,128.6,69.8L128.6,69.8z"/>
		<path class="st1" d="M50.8,125.9c5.9,2,12.2,3,18.7,3c6.8,0,13.4-1.2,19.5-3.3L71,78.8L50.8,125.9L50.8,125.9z"/>
		<path class="st1" d="M12.8,53.1c-1.6,5.3-2.4,10.9-2.4,16.7c0,22.1,12.2,41.4,30.2,51.5L13,53.5L12.8,53.1L12.8,53.1z"/>
		<path class="st1" d="M42.9,49.3l-2.5-0.1c-5.5-0.1-4.9,5.7-4.9,5.7l19.6,49.3l13.2-31.5l-7.4-18.8c-3-5-10.2-4.9-10.2-4.9v-2.6
			h41.3L92,49.2l-4.3,0.3c-5.4,0-4.3,5.1-4.3,5.1l17.9,47.9l5.1-13.3c9.1-20.7,3.5-36,3.5-36c-9.1-18.8,2.4-21.5,2.4-21.5
			c0.7-0.1,1.4-0.2,2.1-0.2c-10.8-12.7-27-20.8-45-20.8c-24.4,0-45.3,14.8-54.3,35.8l27.7-0.3L42.9,49.3L42.9,49.3z"/>
		<path class="st1" d="M135.9,69.6c0,36.6-29.8,66.4-66.4,66.4C32.8,136,3,106.2,3,69.6C3,33,32.8,3.2,69.5,3.2
			C106.1,3.2,135.9,33,135.9,69.6z M69.5,0.2C31.2,0.2,0,31.3,0,69.6s31.2,69.5,69.5,69.5c38.3,0,69.4-31.2,69.4-69.5
			C138.9,31.3,107.8,0.2,69.5,0.2z"/>
	</g>
	<g>
		<path class="st2" d="M133.2,69.8c0-6.1-0.9-12.1-2.7-17.6l-26.4,68.5C121.5,110.4,133.2,91.5,133.2,69.8L133.2,69.8z"/>
		<path class="st2" d="M55.4,125.9c5.9,2,12.2,3,18.7,3c6.8,0,13.4-1.2,19.5-3.3l-18-46.8L55.4,125.9L55.4,125.9z"/>
		<path class="st2" d="M17.4,53.1C15.9,58.4,15,64,15,69.8c0,22.1,12.2,41.4,30.2,51.5L17.6,53.5L17.4,53.1L17.4,53.1z"/>
		<path class="st2" d="M47.5,49.3L45,49.2c-5.5-0.1-4.9,5.7-4.9,5.7l19.6,49.3l13.2-31.5l-7.4-18.8c-3-5-10.2-4.9-10.2-4.9v-2.6
			h41.3l-0.1,2.9l-4.3,0.3c-5.4,0-4.3,5.1-4.3,5.1l17.9,47.9l5.1-13.3c9.1-20.7,3.5-36,3.5-36c-9.1-18.8,2.4-21.5,2.4-21.5
			c0.7-0.1,1.4-0.2,2.1-0.2c-10.8-12.7-27-20.8-45-20.8c-24.4,0-45.3,14.8-54.3,35.8l27.7-0.3L47.5,49.3L47.5,49.3z"/>
		<path class="st2" d="M140.5,69.6c0,36.6-29.8,66.4-66.4,66.4c-36.6,0-66.4-29.8-66.4-66.4C7.6,33,37.4,3.2,74.1,3.2
			C110.7,3.2,140.5,33,140.5,69.6z M74.1,0.2C35.8,0.2,4.6,31.3,4.6,69.6s31.2,69.5,69.5,69.5c38.3,0,69.4-31.2,69.4-69.5
			C143.5,31.3,112.4,0.2,74.1,0.2z"/>
	</g>
</g>
</svg>
