<?xml version="1.0" encoding="utf-8"?>
<!-- Generator: Adobe Illustrator 20.1.0, SVG Export Plug-In . SVG Version: 6.00 Build 0)  -->
<svg version="1.1" id="Capa_1" xmlns="http://www.w3.org/2000/svg" xmlns:xlink="http://www.w3.org/1999/xlink" x="0px" y="0px"
	 viewBox="0 0 204.4 138.9" style="enable-background:new 0 0 204.4 138.9;" xml:space="preserve">
<style type="text/css">
	.st0{opacity:0.1098;fill:#070308;}
	.st1{opacity:0.2078;fill:#070308;}
	.st2{fill:#666565;}
	.st3{fill:#CBCBCB;}
	.st4{fill:#F2F2F2;}
	.st5{fill:#4E4E4E;}
	.st6{fill:#B54B50;}
	.st7{fill:#FFFFFF;}
	.st8{fill:#989898;}
	.st9{fill:#4FA9CC;}
	.st10{fill:#63A4A6;}
	.st11{fill:#424241;}
	.st12{fill:#C7555B;}
	.st13{opacity:0.23;fill:#FFFFFF;}
	.st14{opacity:0.1804;fill:#070308;}
	.st15{fill:#E6E6E5;}
	.st16{fill:#B1B1B1;}
</style>
<g>
	<g>
		<path class="st0" d="M191.7,6.7h-134v83.1h129.8l0,0l0,0c0.3-0.4,0.7-0.7,1.3-0.7s1,0.3,1.3,0.7l0,0l0,0h1.6v-2.7H190H59.7h-1.6
			v-1.6V9.2V7.6h1.6H190h1.6V6.7"/>
		<path class="st0" d="M57.7,6.7L57.7,6.7h134v0.9h0v1.6v76.3v1.6h0v2.7H190c0.1,0.2,0.2,0.5,0.2,0.8c0,0.8-0.7,1.5-1.5,1.5
			c-0.8,0-1.5-0.7-1.5-1.5c0-0.3,0.1-0.5,0.2-0.8H57.7V6.7 M191.7,1.6h-134c-2.8,0-5.1,2.3-5.1,5.1v83.1c0,2.8,2.3,5.1,5.1,5.1h52.9
			v-0.4h28.7v0.4h52.4c2.8,0,5.1-2.3,5.1-5.1V6.7C196.7,3.9,194.5,1.6,191.7,1.6"/>
		<path class="st0" d="M113.6,81.4v-2h22.3v2H113.6 M149.6,81.4v-2h22.3v2H149.6 M78.2,80.4v-2h21.9v2H78.2 M149.6,77.3v-2h22.3v2
			H149.6 M78.2,76.4v-2h21.9v2H78.2 M113.7,76.4v-2h21.9v2H113.7 M149.6,73.3v-2h22.3v2H149.6 M78.2,72.4v-2h21.9v2H78.2
			 M113.7,72.4v-2h21.9v2H113.7 M156,69l3.7-7.7l3.8,7.7H156 M88.9,68.1c-2,0-3.7-1.6-3.7-3.7c0-2,1.6-3.7,3.7-3.7
			c2,0,3.7,1.7,3.7,3.7C92.6,66.5,90.9,68.1,88.9,68.1 M120.4,68.1v-7.4h7.4v7.4H120.4 M190,58.4H65.6l-5.9,4.9v22.1H190V58.4"/>
		<path class="st0" d="M124.8,9.2L124.8,9.2H190v49.2v27.1H59.7V9.2v49.2v4.9V9.2H124.8 M191.7,7.6L191.7,7.6H190H59.7h-1.6v1.6
			v76.3v1.6h1.6H190h1.6h0v-1.6V9.2V7.6"/>
		<polyline class="st1" points="59.7,9.2 59.7,85.5 190,85.5 59.7,85.5 59.7,63.3 59.7,58.4 59.7,9.2 		"/>
		<path class="st0" d="M139.3,94.5h-28.7v0.4v14.5c8.7,0,20.1,0,28.7,0V94.9V94.5"/>
		<path class="st0" d="M98.1,109.3c-2.2,0-2.1,1.1-2.1,1.1s0,1.3,0,2.3c0,1.1,1.7,1.1,2,1.1h0c0,0,45.2,0,53.3,0
			c2.4,0,2.4-1.2,2.4-1.2s0-1.5,0-2.3c0-1.1-1.5-1.1-1.9-1.1c-0.1,0-0.1,0-0.1,0s-5.3,0-12.5,0c-8.6,0-20,0-28.7,0
			C104.5,109.3,99.7,109.3,98.1,109.3"/>
		<path class="st0" d="M188.8,89.1c-0.5,0-1,0.3-1.3,0.7c-0.1,0.2-0.2,0.5-0.2,0.8c0,0.8,0.7,1.5,1.5,1.5c0.8,0,1.5-0.7,1.5-1.5
			c0-0.3-0.1-0.5-0.2-0.8C189.8,89.4,189.3,89.1,188.8,89.1"/>
		<path class="st0" d="M90.1,54.8v-3.8h17v3.8H90.1 M153,48.6c-9.9,0-18-8.1-18-18c0-9.9,8.1-18,18-18c9.9,0,18,8.1,18,18
			C171,40.6,163,48.6,153,48.6 M190,9.2h-65.2l-8,6.7h9.8v5.9h-16.9l-4.5,3.8h4.8v5.9H98.1L92.6,36h32.7v2.4H89.7l-2.3,1.9h37.9v2.4
			H84.5l-2.3,1.9h39.3V47H79.3L65.6,58.4H190V9.2"/>
		<polyline class="st0" points="126.6,15.9 116.8,15.9 109.7,21.8 126.6,21.8 126.6,15.9 		"/>
		<polyline class="st0" points="110,25.5 105.2,25.5 98.1,31.5 110,31.5 110,25.5 		"/>
		<polyline class="st0" points="125.3,36 92.6,36 89.7,38.4 125.3,38.4 125.3,36 		"/>
		<polyline class="st0" points="125.3,40.3 87.4,40.3 84.5,42.7 125.3,42.7 125.3,40.3 		"/>
		<polyline class="st0" points="121.5,44.6 82.2,44.6 79.3,47 121.5,47 121.5,44.6 		"/>
		<polyline class="st0" points="100.1,70.4 78.2,70.4 78.2,72.4 100.1,72.4 100.1,70.4 		"/>
		<polyline class="st0" points="100.1,74.4 78.2,74.4 78.2,76.4 100.1,76.4 100.1,74.4 		"/>
		<polyline class="st0" points="100.1,78.4 78.2,78.4 78.2,80.4 100.1,80.4 100.1,78.4 		"/>
		<polyline class="st0" points="135.7,70.4 113.7,70.4 113.7,72.4 135.7,72.4 135.7,70.4 		"/>
		<polyline class="st0" points="135.7,74.4 113.7,74.4 113.7,76.4 135.7,76.4 135.7,74.4 		"/>
		<polyline class="st0" points="135.8,79.4 113.6,79.4 113.6,81.4 135.8,81.4 135.8,79.4 		"/>
		<polyline class="st0" points="171.9,71.3 149.6,71.3 149.6,73.3 171.9,73.3 171.9,71.3 		"/>
		<polyline class="st0" points="171.9,75.3 149.6,75.3 149.6,77.3 171.9,77.3 171.9,75.3 		"/>
		<polyline class="st0" points="171.9,79.4 149.6,79.4 149.6,81.4 171.9,81.4 171.9,79.4 		"/>
		<path class="st0" d="M153,12.6c-9.9,0-18,8.1-18,18c0,9.9,8.1,18,18,18c9.9,0,18-8.1,18-18C171,20.7,163,12.6,153,12.6"/>
		<polyline class="st0" points="107.1,51.1 90.1,51.1 90.1,54.8 107.1,54.8 107.1,51.1 		"/>
		<path class="st0" d="M88.9,60.8c-2,0-3.7,1.7-3.7,3.7c0,2,1.6,3.7,3.7,3.7c2,0,3.7-1.6,3.7-3.7C92.6,62.4,90.9,60.8,88.9,60.8"/>
		<polyline class="st0" points="127.8,60.7 120.4,60.7 120.4,68.1 127.8,68.1 127.8,60.7 		"/>
		<polyline class="st0" points="159.8,61.3 156,69 163.5,69 159.8,61.3 		"/>
		<polyline class="st0" points="65.6,58.4 59.7,58.4 59.7,63.3 65.6,58.4 		"/>
		<polyline class="st0" points="124.8,9.2 59.7,9.2 59.7,58.4 65.6,58.4 79.3,47 78,47 78,44.6 82.2,44.6 84.5,42.7 78,42.7 
			78,40.3 87.4,40.3 89.7,38.4 78,38.4 78,36 92.6,36 98.1,31.5 78,31.5 78,25.5 105.2,25.5 109.7,21.8 78,21.8 78,15.9 116.8,15.9 
			124.8,9.2 		"/>
		<polyline class="st0" points="116.8,15.9 78,15.9 78,21.8 109.7,21.8 116.8,15.9 		"/>
		<polyline class="st0" points="105.2,25.5 78,25.5 78,31.5 98.1,31.5 105.2,25.5 		"/>
		<polyline class="st0" points="92.6,36 78,36 78,38.4 89.7,38.4 92.6,36 		"/>
		<polyline class="st0" points="87.4,40.3 78,40.3 78,42.7 84.5,42.7 87.4,40.3 		"/>
		<polyline class="st0" points="82.2,44.6 78,44.6 78,47 79.3,47 82.2,44.6 		"/>
		<path class="st2" d="M199.3,90.7h-134c-1.4,0-2.5-1.1-2.5-2.5V5.1c0-1.4,1.1-2.5,2.5-2.5h134c1.4,0,2.5,1.1,2.5,2.5v83.1
			C201.8,89.6,200.7,90.7,199.3,90.7z"/>
		<path class="st2" d="M199.3,5.1v83.1h-134V5.1H199.3 M199.3,0h-134c-2.8,0-5.1,2.3-5.1,5.1v83.1c0,2.8,2.3,5.1,5.1,5.1h134
			c2.8,0,5.1-2.3,5.1-5.1V5.1C204.4,2.3,202.1,0,199.3,0z"/>
		<polygon class="st3" points="198.5,84.6 197.7,84.6 67.4,84.6 66.5,84.6 66.5,83.8 66.5,7.6 66.5,6.8 67.4,6.8 197.7,6.8 
			198.5,6.8 198.5,7.6 198.5,83.8 		"/>
		<path class="st4" d="M197.7,7.6v76.3H67.4V7.6H197.7 M199.3,5.9h-1.6H67.4h-1.6v1.6v76.3v1.6h1.6h130.3h1.6v-1.6V7.6V5.9z"/>
		<rect x="118.2" y="92.8" class="st5" width="28.7" height="18"/>
		<path class="st2" d="M103.7,108.8c0,0-0.1-1.1,2.1-1.1c5.6,0,53.6,0,53.6,0s2.1-0.1,2.1,1.1c0,0.8,0,2.3,0,2.3s0,1.2-2.4,1.2
			c-8.1,0-53.3,0-53.3,0s-2.1,0.1-2.1-1.1C103.7,110.1,103.7,108.8,103.7,108.8z"/>
		<circle class="st6" cx="196.4" cy="88.9" r="1.5"/>
		<rect x="67.4" y="7.6" class="st7" width="130.3" height="49.2"/>
		<rect x="85.6" y="14.2" class="st8" width="48.6" height="5.9"/>
		<rect x="85.6" y="23.9" class="st8" width="32" height="5.9"/>
		<rect x="85.6" y="34.4" class="st8" width="47.3" height="2.4"/>
		<rect x="85.6" y="38.7" class="st8" width="47.3" height="2.4"/>
		<rect x="85.6" y="43" class="st8" width="43.5" height="2.4"/>
		<rect x="85.8" y="68.8" class="st7" width="21.9" height="2"/>
		<rect x="85.8" y="72.8" class="st7" width="21.9" height="2"/>
		<rect x="85.8" y="76.8" class="st7" width="21.9" height="2"/>
		<rect x="121.3" y="68.8" class="st7" width="21.9" height="2"/>
		<rect x="121.3" y="72.8" class="st7" width="21.9" height="2"/>
		<rect x="121.2" y="77.8" class="st7" width="22.3" height="2"/>
		<rect x="157.2" y="69.6" class="st7" width="22.3" height="2"/>
		<rect x="157.2" y="73.7" class="st7" width="22.3" height="2"/>
		<rect x="157.2" y="77.8" class="st7" width="22.3" height="2"/>
		<circle class="st9" cx="160.7" cy="29" r="18"/>
		<rect x="97.7" y="49.4" class="st10" width="17" height="3.8"/>
		<circle class="st11" cx="96.5" cy="62.8" r="3.7"/>
		<rect x="128" y="59.1" class="st9" width="7.4" height="7.4"/>
		<polygon class="st12" points="163.7,67.3 171.2,67.3 167.4,59.6 		"/>
		<polygon class="st13" points="67.4,7.6 67.4,61.7 132.5,7.6 		"/>
	</g>
	<g>
		<path class="st14" d="M84,69c0,0-77.5,0-80.9,0C-0.2,69,0,72.2,0,72.2v49.5c0,0-0.2,3.3,3.1,3.3c3.3,0,76.6,0,80.5,0
			c3.6,0,3.2-3.3,3.2-3.3s0-46.9,0-49.8C86.8,69,84,69,84,69"/>
		<path class="st2" d="M3.8,118.4V68.9c0,0-0.2-3.2,3.1-3.2c3.3,0,80.9,0,80.9,0s2.9,0,2.9,2.9c0,2.9,0,49.8,0,49.8s0.3,3.3-3.2,3.3
			c-3.9,0-77.2,0-80.5,0C3.6,121.7,3.8,118.4,3.8,118.4z"/>
		<rect x="8.7" y="69.8" class="st7" width="74.4" height="47.9"/>
		<path class="st15" d="M83.4,69.5v48.4H8.5V69.5H83.4 M82.9,70.1H9v47.3h73.8V70.1z"/>
		<path class="st16" d="M87.9,98.7c0,0.6-0.5,1.1-1.1,1.1c-0.6,0-1.1-0.5-1.1-1.1V88.4c0-0.6,0.5-1.1,1.1-1.1c0.6,0,1.1,0.5,1.1,1.1
			V98.7z"/>
		<rect x="19.6" y="82.7" class="st8" width="22.1" height="2.6"/>
		<rect x="19.6" y="87.3" class="st8" width="18.6" height="2.6"/>
		<rect x="19.6" y="92.8" class="st8" width="22.1" height="1.4"/>
		<rect x="19.6" y="95.3" class="st8" width="18.6" height="1.4"/>
		<circle class="st9" cx="62.1" cy="94.7" r="13.9"/>
		<rect x="19.6" y="102.8" class="st10" width="18.7" height="3.2"/>
		<rect x="8.5" y="69.5" class="st10" width="74.9" height="6.5"/>
		<polygon class="st10" points="47.5,112.5 45.4,114.6 43.3,112.5 42.9,112.9 45.4,115.4 47.9,112.9 		"/>
		<polygon class="st13" points="8.5,69.5 8.5,92 45.2,69.5 		"/>
	</g>
	<g>
		<path class="st14" d="M100.9,82.7L100.9,82.7l-27.2,0l-0.1,0c-0.3,0-1.7,0.1-1.7,2c0,2.2,0,49.6,0,52.1c0,1.9,1.3,2.1,1.7,2.1
			c0.1,0,0.1,0,0.1,0s25.6,0,27.2,0s1.6-1.9,1.6-1.9s0-50.2,0-52.3C102.6,82.9,101.3,82.7,100.9,82.7"/>
		<path class="st2" d="M77.3,78h27.1c0,0,1.7-0.2,1.7,2c0,2.2,0,52.3,0,52.3s0,1.9-1.6,1.9c-1.6,0-27.2,0-27.2,0s-1.8,0.2-1.8-2.1
			c0-2.5,0-49.9,0-52.1C75.5,77.9,77.3,78,77.3,78z"/>
		<rect x="77.6" y="82.1" class="st7" width="26.5" height="46.5"/>
		<circle class="st5" cx="91" cy="80.2" r="1.1"/>
		<circle class="st4" cx="91" cy="80.2" r="0.4"/>
		<circle class="st16" cx="91" cy="131.3" r="1.8"/>
		<rect x="80.4" y="114.2" class="st8" width="18.9" height="2.5"/>
		<rect x="80.4" y="118.7" class="st8" width="15.8" height="2.5"/>
		<circle class="st9" cx="91" cy="100.4" r="10.7"/>
		<rect x="80.2" y="123.7" class="st10" width="20.1" height="2.9"/>
		<rect x="77.6" y="82.1" class="st10" width="26.5" height="5.1"/>
		<polyline class="st7" points="78.8,83.4 83,83.4 83,82.9 78.8,82.9 		"/>
		<polyline class="st7" points="78.8,85.9 83,85.9 83,85.5 78.8,85.5 		"/>
		<polyline class="st7" points="78.8,84.6 83,84.6 83,84.2 78.8,84.2 		"/>
		<polygon class="st13" points="77.6,82.1 104,82.1 77.6,109.2 		"/>
	</g>
</g>
</svg>
